<svg width="200" height="44" viewBox="0 0 200 44" fill="none" xmlns="http://www.w3.org/2000/svg">
<path d="M22.9236 16.2339C24.0032 15.6107 25.7534 15.6107 26.833 16.2339L47.7771 28.325C48.8567 28.9482 48.8567 29.9586 47.7771 30.5818L26.833 42.6729C25.7534 43.2961 24.0032 43.2961 22.9236 42.6729L1.97947 30.5818C0.899928 29.9586 0.89993 28.9482 1.97947 28.325L22.9236 16.2339Z" fill="#171717"/>
<path d="M22.8988 9.40383C23.9783 8.78061 25.7286 8.78061 26.8081 9.40383L47.7523 21.4949C48.8318 22.1181 48.8318 23.1285 47.7523 23.7518L26.8081 35.8428C25.7286 36.466 23.9783 36.466 22.8988 35.8428L1.95463 23.7518C0.875087 23.1285 0.875089 22.1181 1.95463 21.4949L22.8988 9.40383Z" fill="#212121"/>
<path d="M22.8988 1.88528C23.9783 1.26206 25.7286 1.26206 26.8081 1.88528L47.7523 13.9763C48.8318 14.5995 48.8318 15.61 47.7523 16.2332L26.8081 28.3243C25.7286 28.9475 23.9783 28.9475 22.8988 28.3243L1.95463 16.2332C0.875087 15.61 0.875089 14.5995 1.95463 13.9763L22.8988 1.88528Z" fill="#333333"/>
<path d="M66.821 33.5093L58.3976 12.6742H62.1182L68.6961 29.5506H67.3865L74.0239 12.6742H77.6849L69.2021 33.5093H66.821ZM83.3576 33.8069C82.0678 33.8069 80.8971 33.4795 79.8454 32.8247C78.8136 32.1699 77.9901 31.2869 77.375 30.1757C76.7797 29.0446 76.482 27.7846 76.482 26.3956C76.482 24.9868 76.7797 23.7267 77.375 22.6155C77.9901 21.4845 78.8136 20.5916 79.8454 19.9367C80.8971 19.2621 82.0678 18.9248 83.3576 18.9248C84.449 18.9248 85.4113 19.1629 86.2447 19.6391C87.098 20.0955 87.7726 20.7305 88.2687 21.544C88.7648 22.3576 89.0128 23.2803 89.0128 24.3121V28.4196C89.0128 29.4514 88.7648 30.3741 88.2687 31.1877C87.7925 32.0012 87.1277 32.6461 86.2745 33.1223C85.4213 33.5787 84.449 33.8069 83.3576 33.8069ZM83.8934 30.7114C85.1038 30.7114 86.0761 30.3047 86.8103 29.4911C87.5643 28.6775 87.9413 27.6358 87.9413 26.3658C87.9413 25.5126 87.7726 24.7586 87.4353 24.1037C87.098 23.4489 86.6218 22.9429 86.0066 22.5858C85.4113 22.2088 84.7069 22.0202 83.8934 22.0202C83.0996 22.0202 82.3952 22.2088 81.7801 22.5858C81.1848 22.9429 80.7086 23.4489 80.3514 24.1037C80.0141 24.7586 79.8454 25.5126 79.8454 26.3658C79.8454 27.2191 80.0141 27.9731 80.3514 28.6279C80.7086 29.2827 81.1848 29.7987 81.7801 30.1757C82.3952 30.5328 83.0996 30.7114 83.8934 30.7114ZM87.733 33.5093V29.6697L88.2985 26.1873L87.733 22.7346V19.2224H91.007V33.5093H87.733ZM104.433 33.5093V25.2646C104.433 24.3121 104.126 23.5283 103.51 22.9132C102.915 22.298 102.141 21.9905 101.189 21.9905C100.554 21.9905 99.9883 22.1294 99.4922 22.4072C98.9961 22.685 98.6092 23.0719 98.3314 23.568C98.0536 24.0641 97.9147 24.6296 97.9147 25.2646L96.6348 24.5502C96.6348 23.4589 96.8729 22.4965 97.3492 21.6631C97.8254 20.8098 98.4802 20.1451 99.3136 19.6689C100.167 19.1728 101.119 18.9248 102.171 18.9248C103.242 18.9248 104.195 19.2026 105.028 19.7582C105.862 20.2939 106.517 20.9983 106.993 21.8714C107.469 22.7247 107.707 23.6176 107.707 24.5502V33.5093H104.433ZM94.6406 33.5093V19.2224H97.9147V33.5093H94.6406ZM117.612 33.8069C116.203 33.8069 114.923 33.4795 113.773 32.8247C112.642 32.1699 111.749 31.277 111.094 30.1459C110.439 29.0149 110.112 27.7548 110.112 26.3658C110.112 24.957 110.439 23.697 111.094 22.5858C111.749 21.4547 112.642 20.5618 113.773 19.907C114.923 19.2522 116.203 18.9248 117.612 18.9248C118.723 18.9248 119.755 19.143 120.708 19.5796C121.68 19.9963 122.503 20.6015 123.178 21.3952L121.035 23.568C120.618 23.0719 120.112 22.7048 119.517 22.4667C118.942 22.2088 118.307 22.0798 117.612 22.0798C116.799 22.0798 116.074 22.2683 115.439 22.6453C114.824 23.0025 114.338 23.4985 113.981 24.1335C113.644 24.7685 113.475 25.5126 113.475 26.3658C113.475 27.1992 113.644 27.9433 113.981 28.5982C114.338 29.2331 114.824 29.7391 115.439 30.1161C116.074 30.4733 116.799 30.6519 117.612 30.6519C118.307 30.6519 118.942 30.5328 119.517 30.2947C120.112 30.0368 120.618 29.6598 121.035 29.1637L123.178 31.3365C122.503 32.1302 121.68 32.7453 120.708 33.1819C119.755 33.5986 118.723 33.8069 117.612 33.8069ZM131.796 33.8069C130.407 33.8069 129.147 33.4795 128.016 32.8247C126.885 32.15 125.982 31.2472 125.307 30.1161C124.653 28.9851 124.325 27.7251 124.325 26.3361C124.325 24.9471 124.653 23.697 125.307 22.5858C125.982 21.4746 126.885 20.5916 128.016 19.9367C129.147 19.2621 130.407 18.9248 131.796 18.9248C133.205 18.9248 134.475 19.2522 135.606 19.907C136.737 20.5618 137.63 21.4547 138.285 22.5858C138.959 23.697 139.297 24.9471 139.297 26.3361C139.297 27.7251 138.959 28.9851 138.285 30.1161C137.63 31.2472 136.737 32.15 135.606 32.8247C134.475 33.4795 133.205 33.8069 131.796 33.8069ZM131.796 30.6519C132.61 30.6519 133.324 30.4733 133.939 30.1161C134.574 29.7391 135.06 29.2232 135.398 28.5684C135.755 27.9136 135.933 27.1695 135.933 26.3361C135.933 25.5027 135.755 24.7685 135.398 24.1335C135.04 23.4985 134.554 23.0025 133.939 22.6453C133.324 22.2683 132.61 22.0798 131.796 22.0798C131.002 22.0798 130.288 22.2683 129.653 22.6453C129.038 23.0025 128.552 23.4985 128.195 24.1335C127.857 24.7685 127.689 25.5027 127.689 26.3361C127.689 27.1695 127.857 27.9136 128.195 28.5684C128.552 29.2232 129.038 29.7391 129.653 30.1161C130.288 30.4733 131.002 30.6519 131.796 30.6519ZM147.883 33.8069C146.673 33.8069 145.591 33.539 144.639 33.0033C143.706 32.4675 142.972 31.7333 142.436 30.8007C141.92 29.8483 141.662 28.7569 141.662 27.5266V19.2224H144.936V27.3778C144.936 28.0723 145.045 28.6676 145.264 29.1637C145.502 29.6399 145.839 30.007 146.276 30.265C146.732 30.5229 147.268 30.6519 147.883 30.6519C148.835 30.6519 149.56 30.3741 150.056 29.8185C150.572 29.2431 150.83 28.4295 150.83 27.3778V19.2224H154.104V27.5266C154.104 28.7767 153.836 29.878 153.3 30.8305C152.784 31.7631 152.06 32.4973 151.127 33.033C150.195 33.549 149.113 33.8069 147.883 33.8069ZM162.218 33.5093L155.699 19.2224H159.33L164.301 30.8603H162.158L167.158 19.2224H170.641L164.122 33.5093H162.218ZM178.741 33.8069C177.312 33.8069 176.022 33.4894 174.872 32.8545C173.74 32.1996 172.838 31.3067 172.163 30.1757C171.508 29.0446 171.181 27.7747 171.181 26.3658C171.181 24.957 171.508 23.697 172.163 22.5858C172.818 21.4547 173.701 20.5618 174.812 19.907C175.943 19.2522 177.193 18.9248 178.562 18.9248C179.892 18.9248 181.063 19.2323 182.074 19.8474C183.106 20.4626 183.91 21.3059 184.485 22.3774C185.081 23.4489 185.378 24.6693 185.378 26.0384C185.378 26.2765 185.358 26.5246 185.319 26.7825C185.299 27.0207 185.259 27.2885 185.2 27.5862H173.473V24.9074H183.503L182.283 25.9789C182.243 25.1058 182.074 24.3716 181.777 23.7763C181.479 23.1811 181.053 22.7247 180.497 22.4072C179.961 22.0897 179.296 21.931 178.503 21.931C177.669 21.931 176.945 22.1095 176.33 22.4667C175.715 22.8239 175.239 23.3299 174.901 23.9847C174.564 24.6197 174.395 25.3836 174.395 26.2765C174.395 27.1695 174.574 27.9533 174.931 28.6279C175.288 29.3026 175.794 29.8284 176.449 30.2054C177.104 30.5626 177.858 30.7412 178.711 30.7412C179.445 30.7412 180.12 30.6122 180.735 30.3543C181.37 30.0963 181.906 29.7193 182.342 29.2232L184.426 31.3365C183.731 32.15 182.888 32.7652 181.896 33.1819C180.904 33.5986 179.852 33.8069 178.741 33.8069ZM188.003 33.5093V19.2224H191.277V33.5093H188.003ZM191.277 25.5622L190.146 24.9967C190.146 23.191 190.543 21.7325 191.337 20.6213C192.15 19.4903 193.37 18.9248 194.998 18.9248C195.712 18.9248 196.357 19.0537 196.932 19.3117C197.508 19.5696 198.043 19.9863 198.54 20.5618L196.396 22.7644C196.139 22.4866 195.851 22.2881 195.533 22.1691C195.216 22.05 194.849 21.9905 194.432 21.9905C193.519 21.9905 192.765 22.2782 192.17 22.8536C191.575 23.4291 191.277 24.3319 191.277 25.5622Z" fill="url(#paint0_linear_37_536)"/>
<defs>
<linearGradient id="paint0_linear_37_536" x1="57.2573" y1="21.9664" x2="199.257" y2="21.9664" gradientUnits="userSpaceOnUse">
<stop stop-color="#DEC880"/>
<stop offset="0.155674" stop-color="white"/>
<stop offset="0.567708" stop-color="#FF347D"/>
<stop offset="1" stop-color="#827DED"/>
</linearGradient>
</defs>
</svg>
