<svg width="29" height="28" viewBox="0 0 29 28" fill="none" xmlns="http://www.w3.org/2000/svg">
<path d="M4.32189 3.48303L4.3219 3.48304L4.32531 3.47979C6.20129 1.6887 8.75584 0.636297 11.3494 0.502724C11.6083 0.502738 11.8682 0.503183 12.1287 0.503629C12.6201 0.50447 13.1136 0.505315 13.6065 0.503277C13.5998 0.837354 13.6004 1.16915 13.602 1.49601C13.6023 1.5534 13.6026 1.61062 13.6029 1.66766C13.6053 2.10698 13.6076 2.53657 13.5958 2.96541C13.4694 5.08501 12.6845 7.157 11.3658 8.81792L11.3658 8.81787L11.3607 8.82446C9.6423 11.0643 7.00801 12.572 4.21208 12.9612L4.21206 12.9611L4.20125 12.9628C3.60384 13.0593 2.99317 13.0783 2.3577 13.0759C2.15257 13.0751 1.94143 13.072 1.72714 13.0688C1.46418 13.0649 1.19647 13.061 0.929285 13.0612C0.929418 12.8047 0.926567 12.5541 0.923753 12.3068C0.916144 11.6383 0.908815 10.9944 0.961548 10.3252C1.20171 7.74079 2.42428 5.26089 4.32189 3.48303Z" fill="white" stroke="black"/>
<path d="M24.4407 3.16126L24.4407 3.1613L24.4462 3.16607C26.418 4.85799 27.7675 7.27746 28.1134 9.85392C28.1885 10.4487 28.2031 11.0534 28.2056 11.6799C28.2061 11.821 28.2061 11.9638 28.206 12.1079C28.2058 12.4239 28.2056 12.7461 28.2121 13.0691C27.5186 13.0672 26.8248 13.0663 26.1287 13.0707C24.0956 13.0134 22.0902 12.3557 20.3781 11.2433L20.3689 11.2367C19.5374 10.6412 18.7648 10.0879 18.2046 9.34591L18.192 9.32924L18.178 9.31369C16.8834 7.86756 16.0027 6.05022 15.6704 4.13618L15.6704 4.13617L15.6691 4.12933C15.4904 3.17866 15.4918 2.23672 15.4932 1.24333C15.4936 1.00011 15.4939 0.753813 15.4916 0.503547C15.8204 0.504618 16.1483 0.5037 16.4747 0.502787L16.4767 0.502782C16.97 0.501402 17.4596 0.500041 17.9494 0.505371C20.3273 0.676569 22.6641 1.59095 24.4407 3.16126Z" fill="white" stroke="black"/>
<path d="M0.922973 14.883C1.14309 14.885 1.3606 14.8824 1.57177 14.8798C1.63427 14.879 1.69622 14.8783 1.75752 14.8776C2.19811 14.8731 2.61355 14.8751 3.02131 14.9202L3.04342 14.9227L3.06565 14.9232C6.66452 15.0003 10.1663 17.027 12.0312 20.1051L12.0312 20.1051L12.034 20.1096C13.1047 21.8354 13.6775 23.8781 13.6033 25.8999L13.603 25.908L13.603 25.9162C13.6021 26.1414 13.6026 26.363 13.6031 26.5827C13.6038 26.8887 13.6044 27.1908 13.6013 27.4929C13.3381 27.4903 13.0797 27.4909 12.825 27.4915C11.8485 27.4938 10.9255 27.496 9.99099 27.3136L9.99102 27.3134L9.97822 27.3112C7.03743 26.816 4.33185 25.0634 2.7067 22.5687L2.70677 22.5686L2.70143 22.5608C1.47294 20.7512 0.856587 18.5342 0.920529 16.3411L0.920741 16.3338V16.3265C0.920741 15.8431 0.920744 15.3626 0.922973 14.883Z" fill="white" stroke="black"/>
<path d="M24.1254 15.1518L24.1254 15.1518L24.1293 15.1509C25.3985 14.8686 26.7019 14.8741 28.0611 14.8798C28.1078 14.88 28.1547 14.8801 28.2015 14.8803C28.1996 15.1452 28.2006 15.4059 28.2016 15.6633C28.2058 16.7186 28.2097 17.7181 28.0061 18.7209L28.006 18.7209L28.0049 18.7269C27.4177 21.8092 25.3721 24.572 22.6203 26.0876L22.6184 26.0887C20.907 27.0415 18.9369 27.5125 16.9705 27.4912L16.9705 27.4912L16.9629 27.4912C16.754 27.4921 16.5402 27.4912 16.3238 27.4903C16.0503 27.4891 15.7727 27.4879 15.4956 27.4904C15.4948 27.3972 15.494 27.3043 15.4932 27.2118C15.485 26.2638 15.4771 25.3497 15.581 24.4364L15.5812 24.4342C15.8834 21.6694 17.3816 19.0814 19.5455 17.3302C20.8874 16.2721 22.4613 15.508 24.1254 15.1518Z" fill="white" stroke="black"/>
</svg>
