<svg width="31" height="31" viewBox="0 0 31 31" fill="none" xmlns="http://www.w3.org/2000/svg">
<path d="M4.90557 7.72011L5.16512 7.37098C7.56968 4.13665 11.4218 2.03964 15.7636 2.03964C20.1309 2.03964 24.0025 4.16139 26.4041 7.42815L26.6548 7.76917L26.3599 8.07274C26.2759 8.15918 26.1985 8.24963 26.1278 8.34098C25.752 8.82759 25.4547 9.47593 25.2061 10.1744L25.2061 10.1746C24.7062 11.5774 24.3208 13.4241 23.9559 15.198C23.9559 15.1981 23.9559 15.1983 23.9558 15.1984L23.9238 15.3559L23.9236 15.357L23.9166 15.3908C23.5593 17.1284 23.2182 18.7869 22.8022 20.0298L22.3281 19.871L22.8022 20.0298C22.6729 20.416 22.5438 20.7384 22.4165 20.9979C22.4224 21.0062 22.4286 21.0154 22.4348 21.0255L22.4354 21.0264C22.4484 21.0475 22.5091 21.146 22.5091 21.2879C22.5091 21.3724 22.4867 21.4914 22.3995 21.6004C22.3133 21.708 22.2049 21.7546 22.1287 21.7734C22.0583 21.7908 21.9954 21.7897 21.9506 21.7845L21.8254 21.9861L21.6975 21.7874C21.6466 21.7941 21.5743 21.7957 21.4937 21.7727C21.4045 21.7472 21.2982 21.689 21.2205 21.5776C21.1464 21.471 21.1309 21.3623 21.1309 21.2918V21.0848L21.2153 21.0003C21.0821 20.7382 20.9467 20.412 20.8106 20.0207C20.3628 18.7341 19.9901 16.9982 19.6043 15.1925L19.6041 15.1915L19.5918 15.133C19.5917 15.1327 19.5916 15.1324 19.5915 15.132L4.90557 7.72011ZM4.90557 7.72011L5.21544 8.02545C5.31806 8.12656 5.41083 8.23372 5.4937 8.34112C5.86618 8.82406 6.16845 9.46855 6.42621 10.166L6.42622 10.166C6.94394 11.5666 7.36233 13.4106 7.75622 15.1868L7.82242 15.4856L7.82242 15.4856L7.8275 15.5085C8.20186 17.1986 8.55882 18.8102 8.96965 20.0281L8.96968 20.0282C9.08675 20.3751 9.20199 20.6704 9.31424 20.9151M4.90557 7.72011L9.31424 20.9151M21.5451 21.1017L21.3695 20.8657C21.3721 20.8641 21.3748 20.8625 21.3776 20.8608L21.3783 20.8604C21.3837 20.8572 21.4122 20.8402 21.4538 20.8243L21.6462 20.9439M21.5451 21.1017C21.5419 21.1096 21.5389 21.1176 21.5362 21.1254C21.5329 21.1353 21.5298 21.1452 21.5272 21.1549L21.573 21.2084L21.6391 21.2855L21.6406 21.2879L21.6432 21.2918H21.6445H21.6866M21.5451 21.1017C21.5618 21.0598 21.5856 21.0169 21.6188 20.9754C21.6277 20.9643 21.6369 20.9538 21.6462 20.9439M21.5451 21.1017L21.6078 21.186L21.6837 21.2879L21.6866 21.2918M21.6866 21.2918L21.8239 21.4763L21.9522 21.2918M21.6866 21.2918H21.9522M21.9522 21.2918H21.9919H21.994L21.9963 21.2879L22.0001 21.2816L22.063 21.203L22.109 21.1455C22.1061 21.1359 22.1028 21.1263 22.0992 21.1165C22.0963 21.1089 22.0933 21.1013 22.09 21.0936M21.9522 21.2918L21.9549 21.2879L22.0287 21.1817L22.09 21.0936M22.09 21.0936L22.2568 20.8537C22.2518 20.8509 22.2464 20.8479 22.2407 20.8449L22.2399 20.8445C22.2345 20.8416 22.2122 20.8298 22.1797 20.818L21.9877 20.9415M22.09 21.0936C22.0775 21.0649 22.0616 21.0354 22.0412 21.0061C22.0245 20.9822 22.0066 20.9607 21.9877 20.9415M21.9877 20.9415C21.9646 20.9179 21.9401 20.8977 21.9152 20.8805C21.882 20.9433 21.8496 20.9999 21.818 21.0508M21.9877 20.9415L21.818 21.0508M21.818 21.0508C21.7855 21.0002 21.7521 20.9438 21.7179 20.8814C21.6935 20.8989 21.6693 20.9195 21.6462 20.9439M21.818 21.0508L21.6462 20.9439M9.66617 20.8172C9.64456 20.815 9.62616 20.8146 9.61214 20.8147C9.50638 20.8155 9.42756 20.8512 9.41564 20.8566L9.41453 20.857C9.37783 20.8732 9.35031 20.8909 9.34138 20.8969L9.52289 21.1223L9.67319 21.3089L9.67775 21.3146L9.67965 21.317M9.66617 20.8172L10.1159 21.3144L10.0749 21.3102M9.66617 20.8172L9.84516 20.914M9.66617 20.8172L9.86336 20.9012M9.67965 21.317H9.64114C9.64114 21.3183 9.64115 21.3197 9.64116 21.321C9.64117 21.3227 9.64119 21.3244 9.64123 21.3261L9.83294 21.6005L9.86443 21.5627L9.87108 21.5547M9.67965 21.317H10.0693M9.67965 21.317L9.87108 21.5547M9.87108 21.5547L9.87848 21.5639L9.91683 21.6115L10.1157 21.3286C10.1158 21.3266 10.1158 21.3246 10.1159 21.3226C10.1159 21.3207 10.1159 21.3188 10.1159 21.317H10.0693M9.87108 21.5547L10.0693 21.317M10.0693 21.317L10.0712 21.3146L10.0749 21.3102M10.0749 21.3102L9.87061 21.2894L9.64372 21.2663C9.65245 21.1807 9.68556 21.0834 9.75517 20.999C9.77492 20.9751 9.7976 20.9522 9.82349 20.9309C9.83069 20.9249 9.83792 20.9193 9.84516 20.914M10.0749 21.3102L10.1122 21.2655L10.1133 21.2642M9.76919 21.7907L9.87588 21.9917L9.98395 21.7917C10.0089 21.8002 10.0852 21.8234 10.1826 21.8153C10.2428 21.8103 10.3535 21.7897 10.4588 21.7031C10.576 21.6067 10.6274 21.4776 10.6386 21.3677L10.6411 21.3424V21.317C10.6411 21.2299 10.6182 21.1645 10.6078 21.1374C10.5953 21.1048 10.5818 21.0801 10.5736 21.066C10.5572 21.0377 10.5416 21.0173 10.5345 21.0082C10.519 20.9884 10.5053 20.9741 10.4994 20.968C10.4856 20.9538 10.4735 20.9429 10.466 20.9365C10.4592 20.9306 10.4523 20.9249 10.4456 20.9196C10.561 20.6729 10.6797 20.3745 10.8005 20.0235C11.2285 18.7797 11.6024 17.1229 11.9931 15.392L11.9989 15.3664L11.9989 15.3664L12.0401 15.1839C12.441 13.4084 12.8628 11.5664 13.3739 10.1685C13.6283 9.47274 13.9243 8.83034 14.2859 8.34895L14.2859 8.34894C14.6433 7.87312 15.1662 7.42639 15.879 7.42639C16.5953 7.42639 17.1147 7.87689 17.4658 8.35653C17.8198 8.84008 18.1045 9.48422 18.3467 10.1798C18.8271 11.56 19.2161 13.3754 19.5908 15.1287L9.76919 21.7907ZM9.76919 21.7907C9.73372 21.8019 9.68131 21.8142 9.61981 21.8146C9.56016 21.8151 9.42143 21.8051 9.29293 21.6963C9.17089 21.593 9.12853 21.4622 9.11849 21.3639M9.76919 21.7907L9.11849 21.3639M10.1133 21.2642L10.2312 21.1227L10.4168 20.9001C10.4111 20.8963 10.4047 20.8922 10.3978 20.888L10.3972 20.8877C10.389 20.8828 10.3537 20.8615 10.3044 20.8445L10.3032 20.8441C10.286 20.838 10.2052 20.8099 10.0996 20.8187C10.0977 20.8189 10.0958 20.8191 10.0938 20.8193L9.9152 20.9141M10.1133 21.2642C10.1051 21.1866 10.0769 21.0889 10.0052 21.0005C9.98632 20.9772 9.96437 20.9545 9.93896 20.933C9.93107 20.9263 9.92315 20.92 9.9152 20.9141M10.1133 21.2642C10.1133 21.2646 10.1133 21.265 10.1134 21.2654C10.1149 21.28 10.1157 21.294 10.1159 21.307L9.87991 20.9328M9.9152 20.9141L9.87991 20.9328M9.9152 20.9141C9.90911 20.9095 9.90301 20.9051 9.8969 20.901C9.89122 20.9117 9.88555 20.9224 9.87991 20.9328M9.84516 20.914C9.85123 20.9095 9.8573 20.9053 9.86336 20.9012M9.84516 20.914L9.87991 20.9328M9.86336 20.9012C9.8689 20.9119 9.87442 20.9224 9.87991 20.9328M9.86336 20.9012L9.87991 20.9328M9.31424 20.9151C9.30694 20.9208 9.29951 20.9268 9.29204 20.9333C9.28458 20.9397 9.27172 20.9511 9.25709 20.9663C9.25096 20.9726 9.23583 20.9885 9.21891 21.0106C9.21125 21.0206 9.1938 21.044 9.17616 21.0767C9.1673 21.093 9.15284 21.1219 9.14047 21.1599C9.13171 21.1868 9.11594 21.2421 9.11593 21.3146L9.31424 20.9151ZM9.11849 21.3639L9.11837 21.3639C9.11694 21.3495 9.1162 21.3356 9.11599 21.3222L9.11849 21.3639ZM4.13767 8.89741L4.61177 9.83362C4.73256 10.0721 4.85654 10.3601 4.98208 10.6998C5.45646 11.9832 5.85341 13.718 6.25307 15.5201L6.2531 15.5203L6.33123 15.8731L6.33125 15.8732C6.69877 17.5339 7.07324 19.2233 7.51077 20.5201L7.03701 20.6799L7.51078 20.5201C7.74429 21.2123 8.01441 21.8518 8.34491 22.3319L8.34495 22.332C8.66513 22.7972 9.16233 23.2806 9.87618 23.2806C10.5884 23.2806 11.0871 22.799 11.41 22.3354C11.7435 21.856 12.0181 21.2168 12.2563 20.5244L12.2564 20.5243C12.7066 19.2158 13.0938 17.5096 13.4716 15.8348V15.8347L13.4839 15.7803L13.5419 15.523L13.5419 15.523C13.949 13.7202 14.3497 11.9833 14.82 10.6972M4.13767 8.89741L15.5883 10.1442C15.5402 10.0506 15.4954 9.97343 15.4545 9.91138L15.5016 9.88031M4.13767 8.89741L3.70927 9.8554M4.13767 8.89741L3.70927 9.8554M14.82 10.6972L15.2896 10.8689L14.82 10.6972C14.82 10.6972 14.82 10.6972 14.82 10.6972ZM14.82 10.6972C14.9701 10.2865 15.119 9.94601 15.2648 9.67568M15.2648 9.67568C15.2671 9.67946 15.2688 9.68215 15.2698 9.68365C15.2702 9.68415 15.2704 9.68452 15.2705 9.68476C15.2899 9.71561 15.3085 9.73755 15.3168 9.7472C15.3351 9.76824 15.3513 9.78315 15.3578 9.78912C15.3733 9.80328 15.3868 9.81373 15.3943 9.81941C15.4111 9.83217 15.4272 9.84285 15.4414 9.85154L15.4421 9.85064M15.2648 9.67568C15.2468 9.64627 15.194 9.55007 15.194 9.41893C15.194 9.31609 15.2277 9.17602 15.3438 9.06206C15.4497 8.95813 15.5694 8.93048 15.6329 8.92265C15.6797 8.91688 15.722 8.9186 15.7564 8.92284L15.8812 8.74179L16.0028 8.92622C16.0374 8.92275 16.0803 8.92199 16.1276 8.92904C16.1898 8.93832 16.3051 8.96799 16.4069 9.06951C16.519 9.18129 16.5538 9.31855 16.5538 9.42361C16.5538 9.5585 16.4989 9.65297 16.4863 9.67466L16.486 9.67507C16.4834 9.67957 16.4808 9.6839 16.4782 9.68806M15.2648 9.67568L16.4782 9.68806M15.4421 9.85064C15.4458 9.85285 15.4499 9.85515 15.4541 9.85748L15.4548 9.85784C15.4596 9.86051 15.4767 9.86992 15.5016 9.88031M15.4421 9.85064L15.5994 9.6322C15.5959 9.62471 15.5927 9.6172 15.5897 9.60971C15.5851 9.59809 15.581 9.58648 15.5774 9.57494L15.6527 9.48508L15.7028 9.42533L15.7039 9.42361L15.7068 9.41893L15.842 9.19847L15.865 9.23198L15.876 9.24799M15.4421 9.85064L16.2378 9.88842M15.5016 9.88031C15.5141 9.88553 15.5286 9.89099 15.5445 9.89598L15.5459 9.89642C15.5592 9.90065 15.6196 9.91992 15.7018 9.91878C15.7195 9.88577 15.737 9.8542 15.7544 9.82404C15.7363 9.81054 15.7184 9.79517 15.7008 9.77766C15.695 9.77187 15.6894 9.76601 15.684 9.76008L15.5016 9.88031ZM24.7362 20.6772C24.4983 21.3882 24.2038 22.0897 23.8121 22.6355C23.4264 23.1734 22.7791 23.7806 21.8239 23.7806L24.7362 20.6772ZM24.7362 20.6772C25.1925 19.3149 25.5556 17.5482 25.9012 15.8663M24.7362 20.6772L25.9012 15.8663M12.7292 20.687C12.4861 21.3937 12.1936 22.0846 11.8204 22.6209C11.468 23.127 10.8387 23.7806 9.87618 23.7806L12.7292 20.687ZM12.7292 20.687C13.195 19.3331 13.5917 17.5746 13.9714 15.8915L13.9716 15.8905L12.7292 20.687ZM16.2378 9.88842C16.2609 9.87932 16.2766 9.87119 16.2813 9.86874L16.282 9.8684C16.2873 9.86565 16.2923 9.86295 16.2969 9.86038L16.1438 9.63757M16.2378 9.88842L16.0565 9.76339M16.2378 9.88842L15.9852 9.8255M16.1438 9.63757C16.1473 9.63026 16.1507 9.62295 16.1538 9.61563C16.1586 9.60436 16.1629 9.5931 16.1667 9.58191L16.0934 9.49023L16.045 9.42974L16.0414 9.42361L16.0386 9.41893L16.0059 9.36307L15.898 9.21753L15.8872 9.23252L15.876 9.24799M16.1438 9.63757L16.0584 9.51328L15.9967 9.42361L15.9935 9.41893L15.876 9.24799M16.1438 9.63757C16.123 9.68061 16.0945 9.72342 16.0565 9.76339M15.876 9.24799L15.9852 9.8255M16.4782 9.68806C16.6146 9.95349 16.7533 10.2859 16.8926 10.686C17.3405 11.9727 17.7129 13.7087 18.0987 15.5143L18.0987 15.5144L18.1114 15.5738C18.4864 17.3285 18.8756 19.1457 19.3565 20.5269L19.3565 20.527C19.5986 21.2229 19.8833 21.867 20.2372 22.3503L20.2373 22.3503C20.5886 22.8302 21.1079 23.2806 21.8239 23.2806C22.5431 23.2806 23.0596 22.8269 23.4058 22.3441L23.4059 22.344C23.7539 21.859 24.0295 21.2135 24.2621 20.5185L24.2621 20.5184C24.7073 19.1892 25.0647 17.4531 25.4127 15.7599L16.4782 9.68806ZM16.0565 9.76339L15.8719 9.63619C15.9086 9.69174 15.9463 9.75476 15.9852 9.8255M16.0565 9.76339C16.0525 9.76754 16.0484 9.77166 16.0443 9.77575C16.0249 9.79477 16.005 9.81124 15.9852 9.8255M3.70927 9.8554C2.97392 11.4998 2.56528 13.3218 2.56528 15.2379C2.56528 22.527 8.47435 28.4363 15.7636 28.4363C23.0529 28.4363 28.9618 22.527 28.9618 15.2379C28.9618 13.3644 28.5711 11.5808 27.8662 9.96517L27.4227 8.94871L26.9546 9.95411C26.8571 10.1636 26.7569 10.4085 26.6565 10.6911M3.70927 9.8554L25.4638 15.5093M25.4638 15.5093L25.464 15.5085C25.8351 13.7043 26.2 11.9723 26.6565 10.6911M25.4638 15.5093L25.414 15.7534M25.4638 15.5093L25.414 15.7534M26.6565 10.6911L27.1275 10.8589L26.6564 10.6915C26.6564 10.6914 26.6565 10.6912 26.6565 10.6911ZM25.414 15.7534L25.4139 15.754L25.414 15.7534ZM25.9012 15.8663L25.9038 15.854L25.9012 15.8663ZM10.4452 20.9205C10.4458 20.9209 10.4464 20.9214 10.4469 20.9218C10.4637 20.9349 10.4752 20.9459 10.4809 20.9515L10.3809 21.053C10.4022 21.0106 10.4237 20.9665 10.4452 20.9205ZM9.36445 21.0216L9.28755 20.9383C9.289 20.937 9.29509 20.9314 9.30478 20.9236L9.30488 20.9235C9.30633 20.9223 9.30971 20.9196 9.3146 20.9159C9.33129 20.9522 9.3479 20.9874 9.36445 21.0216ZM21.8484 21.5092C21.8516 21.5124 21.8548 21.5156 21.8578 21.5187L21.8568 21.5205L21.8484 21.5092ZM21.8144 21.49L21.7916 21.5228L21.6652 21.3261C21.6869 21.3478 21.7071 21.368 21.7259 21.3868C21.7623 21.4231 21.7936 21.4544 21.8204 21.4813L21.8144 21.49ZM16.0048 9.36114L15.8985 9.21686L15.9105 9.20009L16.0048 9.36114ZM1.02563 15.2379C1.02563 7.09841 7.62404 0.5 15.7636 0.5C23.9033 0.5 30.5013 7.0984 30.5013 15.2379C30.5013 23.3775 23.9033 29.9759 15.7636 29.9759C7.62404 29.9759 1.02563 23.3774 1.02563 15.2379Z" fill="white" stroke="black"/>
</svg>
