<svg width="26" height="27" viewBox="0 0 26 27" fill="none" xmlns="http://www.w3.org/2000/svg">
<path d="M21.3038 4.68409V4.18409H20.8038H10.2626V0.5H24.9877V15.2251H21.3038V4.68409Z" fill="white" stroke="black"/>
<path d="M18.1323 19.2859L18.1323 19.2859C18.4616 17.6307 18.2925 15.9149 17.6466 14.3555C17.0007 12.7962 15.907 11.4634 14.5036 10.5258C13.2392 9.6809 11.7747 9.19097 10.2626 9.10224V12.7975C11.045 12.8786 11.7986 13.1492 12.4568 13.5889L12.179 14.0047L12.4568 13.5889C13.2543 14.1218 13.8759 14.8792 14.243 15.7653C14.61 16.6514 14.706 17.6267 14.5189 18.5674L14.5189 18.5674C14.3318 19.5081 13.8699 20.372 13.1918 21.0504L13.1917 21.0505C12.5135 21.7286 11.6494 22.1904 10.7086 22.3774C9.76784 22.5647 8.79285 22.4685 7.90685 22.1017L7.90672 22.1016C7.0206 21.7345 6.26321 21.1129 5.73036 20.3152C5.29056 19.6572 5.02002 18.9035 4.93893 18.121H1.24366C1.33239 19.6333 1.82232 21.0979 2.66716 22.3621L2.66718 22.3621C3.60485 23.7656 4.93759 24.8592 6.49691 25.5051C8.05625 26.151 9.77207 26.3201 11.4274 25.9908C13.0828 25.6615 14.6033 24.8488 15.7967 23.6555C15.7968 23.6555 15.7968 23.6555 15.7968 23.6555M18.1323 19.2859L18.6227 19.3835C18.2741 21.136 17.4138 22.7455 16.1503 24.009L15.7968 23.6555M18.1323 19.2859C17.803 20.9415 16.9903 22.4618 15.7968 23.6555M18.1323 19.2859L15.7968 23.6555" fill="white" stroke="black"/>
</svg>
