<svg width="30" height="30" viewBox="0 0 30 30" fill="none" xmlns="http://www.w3.org/2000/svg">
<path d="M15.6415 18.8868L16.7157 29.0038L10.7676 28.9546L11.7344 21.9218L11.7802 21.5883L11.4884 21.4203L10.2702 20.7192L9.97814 20.5511L9.71271 20.7588L4.18478 25.0837L1.10881 19.9197L10.3389 15.8116L15.6415 18.8868Z" fill="white" stroke="black"/>
<path d="M21.4711 15.4844V15.8215L21.7836 15.9479L28.3365 18.5988L25.4072 23.8607L17.2504 17.8609V11.7055L25.4091 5.70422L28.3363 10.9135L21.7803 13.6198L21.4711 13.7475V14.082V15.4844Z" fill="white" stroke="black"/>
<path d="M11.4884 8.14641L11.7802 7.97848L11.7344 7.64497L10.767 0.607454L16.7152 0.509261L15.6415 10.6216L10.3389 13.6968L1.10736 9.5881L4.12941 4.48195L9.71457 8.80949L9.97963 9.01486L10.2702 8.84759L11.4884 8.14641Z" fill="white" stroke="black"/>
</svg>
