<svg width="29" height="29" viewBox="0 0 29 29" fill="none" xmlns="http://www.w3.org/2000/svg">
<path d="M8.90509 13.1161L8.9051 13.1161L12.7986 13.6028C12.8874 13.6139 12.9659 13.5446 12.9659 13.455V0.649052C12.9659 0.559483 12.8875 0.4902 12.7986 0.501306L8.90509 13.1161ZM8.90509 13.1161C8.83058 13.1068 8.77466 13.0434 8.77466 12.9683V1.13576C8.77466 1.06068 8.83054 0.997326 8.9051 0.987975C8.90511 0.987973 8.90513 0.987971 8.90515 0.98797L12.7986 0.501307L8.90509 13.1161Z" fill="white" stroke="black"/>
<path d="M1.1181 2.61024L1.11811 2.61024L5.01159 2.12357L5.01163 2.12356C5.10049 2.11245 5.17899 2.18171 5.17899 2.27131V12.4816C5.17899 12.5712 5.1005 12.6405 5.01159 12.6294C5.01159 12.6294 5.01158 12.6294 5.01158 12.6294L1.11811 12.1427L1.1181 12.1427C1.04359 12.1334 0.987671 12.07 0.987671 11.9949V2.75798C0.987671 2.68289 1.04359 2.61955 1.1181 2.61024Z" fill="white" stroke="black"/>
<path d="M20.6224 7.27581L20.6224 7.27581L16.729 7.76252C16.729 7.76252 16.729 7.76252 16.729 7.76252C16.6402 7.77362 16.5616 7.70434 16.5616 7.61473V0.745042C16.5616 0.648229 16.6526 0.577104 16.7467 0.600582C16.7467 0.600584 16.7467 0.600587 16.7467 0.600589L20.6401 1.57393C20.7065 1.59054 20.753 1.65033 20.753 1.71842V7.12806C20.753 7.20299 20.6972 7.26647 20.6224 7.27581Z" fill="white" stroke="black"/>
<path d="M27.7605 6.95138L27.7605 6.95138C27.8352 6.94204 27.8911 6.87856 27.8911 6.80363V3.34075C27.8911 3.27263 27.8445 3.21289 27.7783 3.19629L27.7605 6.95138ZM27.7605 6.95138L23.867 7.43809C23.867 7.43809 23.867 7.43809 23.867 7.43809C23.7781 7.44919 23.6996 7.37985 23.6996 7.2903V2.36737C23.6996 2.27065 23.7905 2.19936 23.8848 2.22291C23.8849 2.22291 23.8849 2.22292 23.8849 2.22292L27.7782 3.19627L27.7605 6.95138Z" fill="white" stroke="black"/>
<path d="M0.987671 28.1557V15.7121L23.1532 17.774L23.6995 17.8248V17.2762V14.5145V14.0145H23.1995H20.2919C18.345 14.0145 16.6985 12.6415 16.3101 10.782L27.8911 10.4851V26.2789L0.987671 28.1557Z" fill="white" stroke="black"/>
</svg>
