<svg width="35" height="30" viewBox="0 0 35 30" fill="none" xmlns="http://www.w3.org/2000/svg">
<path d="M24.2358 7.14098C24.2358 10.8087 21.2627 13.782 17.5951 13.782C13.9273 13.782 10.954 10.8087 10.954 7.14098C10.954 3.47327 13.9273 0.5 17.5951 0.5C21.2627 0.5 24.2358 3.47325 24.2358 7.14098ZM1.47834 16.1098C1.42725 15.4786 1.41948 14.8542 1.45251 14.2394C8.77638 13.9739 15.0804 19.5222 15.6781 26.9004C15.7292 27.5316 15.737 28.1559 15.704 28.7707C8.38009 29.0362 2.07603 23.4878 1.47834 16.1098ZM31.9558 14.276C32.587 14.2248 33.2113 14.2171 33.8262 14.2501C34.0916 21.574 28.5433 27.8781 21.1653 28.4758C20.5342 28.5269 19.9097 28.5346 19.2949 28.5016C19.0295 21.1777 24.5777 14.8736 31.9558 14.276Z" fill="white" stroke="black"/>
</svg>
