<svg width="25" height="28" viewBox="0 0 25 28" fill="none" xmlns="http://www.w3.org/2000/svg">
<path d="M10.0412 2.77695L10.0738 3.27588L10.0411 2.77696C8.35582 2.88743 6.71849 3.3841 5.25582 4.22856L5.50581 4.66158L5.25581 4.22857L4.28006 4.79191L3.15336 2.84043L4.12912 2.27708C5.89113 1.2598 7.86354 0.661459 9.89375 0.528405L9.86105 0.0294758L9.89376 0.528405C11.924 0.395328 13.9576 0.731084 15.8373 1.50968C17.717 2.2883 19.3925 3.48887 20.734 5.01856C22.0754 6.54823 23.047 8.36604 23.5738 10.3313C24.1002 12.2966 24.1678 14.3566 23.7708 16.3521C23.3738 18.3476 22.5232 20.225 21.2846 21.8392C20.0459 23.4534 18.4527 24.761 16.628 25.6608C14.8088 26.5578 12.443 27.0287 10.7613 27.0287C9.08239 27.0287 8.12428 26.7818 6.83442 26.2476C5.58946 25.732 4.45829 24.9762 3.50544 24.0233C2.55262 23.0705 1.79679 21.9391 1.28109 20.6942L0.819154 20.8855L1.28109 20.6942C0.765432 19.4493 0.5 18.115 0.5 16.7675C0.5 15.42 0.765428 14.0856 1.28109 12.8407C1.79678 11.5957 2.5526 10.4645 3.50544 9.51169C4.4583 8.55885 5.58947 7.80301 6.83441 7.28735L6.83442 7.28735C8.07936 6.77166 9.4137 6.50626 10.7612 6.50626C12.1088 6.50626 13.4431 6.77166 14.688 7.28735L14.688 7.28735C15.933 7.80301 17.0642 8.55886 18.017 9.51169C18.9698 10.4645 19.7256 11.5957 20.2413 12.8407L20.2413 12.8408C20.4632 13.3762 20.6386 13.9282 20.7668 14.4909L21.7534 14.409C21.8221 13.2359 21.7029 12.056 21.3972 10.9146L21.3972 10.9145C20.9599 9.28309 20.1534 7.77413 19.0398 6.50432C17.9262 5.23449 16.5354 4.23787 14.975 3.59156C13.4146 2.94521 11.7265 2.6665 10.0412 2.77695ZM3.83112 20.7797L4.67445 22.2359L4.7631 20.5555C4.93368 17.3221 7.61009 14.7524 10.8863 14.7524C14.0358 14.7524 16.6312 17.1272 16.9787 20.1834L17.169 21.8573L17.9227 20.3507C18.0076 20.1808 18.0866 20.0079 18.1595 19.8319C18.5619 18.8604 18.769 17.8191 18.769 16.7675C18.769 15.7159 18.5619 14.6746 18.1595 13.703C17.7571 12.7314 17.1672 11.8487 16.4236 11.1051C15.68 10.3615 14.7972 9.77165 13.8257 9.3692L13.6343 9.83114L13.8257 9.3692C12.8541 8.96678 11.8128 8.75965 10.7612 8.75965C9.70963 8.75965 8.66832 8.96678 7.69676 9.3692L7.69674 9.36921C6.72522 9.77165 5.84244 10.3615 5.09883 11.1051L5.09882 11.1051C4.35525 11.8487 3.7654 12.7314 3.36295 13.703L3.36294 13.703C2.96053 14.6746 2.75339 15.7159 2.75339 16.7675C2.75339 17.8191 2.96053 18.8604 3.36294 19.8319L3.36296 19.832C3.49825 20.1585 3.6547 20.4751 3.83112 20.7797ZM10.8863 24.7628C13.0284 24.7628 14.7649 23.0263 14.7649 20.8843C14.7649 18.7423 13.0284 17.0058 10.8863 17.0058C8.74431 17.0058 7.00782 18.7423 7.00782 20.8843C7.00782 23.0264 8.74431 24.7628 10.8863 24.7628Z" fill="white" stroke="black"/>
</svg>
